<svg width="117" height="32" viewBox="0 0 117 32" fill="none" xmlns="http://www.w3.org/2000/svg">
<path d="M35.0199 25V4.63635H43.054C44.5985 4.63635 45.9143 4.93133 47.0014 5.5213C48.0885 6.10463 48.9171 6.91666 49.4872 7.95739C50.0639 8.99149 50.3523 10.1847 50.3523 11.5369C50.3523 12.8892 50.0606 14.0824 49.4773 15.1165C48.8939 16.1506 48.0488 16.956 46.9418 17.5327C45.8414 18.1094 44.509 18.3977 42.9446 18.3977H37.8239V14.9474H42.2486C43.0772 14.9474 43.7599 14.8049 44.2969 14.5199C44.8404 14.2282 45.2448 13.8272 45.5099 13.3168C45.7817 12.7997 45.9176 12.2064 45.9176 11.5369C45.9176 10.8608 45.7817 10.2708 45.5099 9.76699C45.2448 9.25659 44.8404 8.86219 44.2969 8.58379C43.7533 8.29879 43.0639 8.15619 42.2287 8.15619H39.3253V25H35.0199ZM57.0142 25.2884C56.0398 25.2884 55.1714 25.1193 54.4091 24.7812C53.6468 24.4366 53.0436 23.9295 52.5994 23.2599C52.1619 22.5838 51.9432 21.742 51.9432 20.7344C51.9432 19.8859 52.099 19.1733 52.4105 18.5966C52.7221 18.0199 53.1463 17.5559 53.6832 17.2045C54.2202 16.8532 54.83 16.5881 55.5128 16.4091C56.2022 16.2301 56.9247 16.1042 57.6804 16.0312C58.5687 15.9384 59.2846 15.8523 59.8281 15.7727C60.3717 15.6866 60.7661 15.5606 61.0114 15.3949C61.2566 15.2292 61.3793 14.9839 61.3793 14.6591V14.5994C61.3793 13.9697 61.1804 13.4825 60.7827 13.1378C60.3916 12.7931 59.8348 12.6207 59.1122 12.6207C58.3499 12.6207 57.7434 12.7898 57.2926 13.1278C56.8419 13.4593 56.5436 13.8769 56.3977 14.3807L52.4801 14.0625C52.679 13.1345 53.0701 12.3324 53.6534 11.6562C54.2367 10.9735 54.9891 10.4498 55.9105 10.0852C56.8385 9.71399 57.9124 9.52839 59.1321 9.52839C59.9806 9.52839 60.7926 9.62779 61.5682 9.82669C62.3504 10.0256 63.0431 10.3338 63.6463 10.7514C64.2562 11.169 64.7367 11.706 65.0881 12.3622C65.4394 13.0118 65.6151 13.7907 65.6151 14.6989V25H61.598V22.8821H61.4787C61.2334 23.3594 60.9053 23.7803 60.4943 24.1449C60.0833 24.5028 59.5895 24.7846 59.0128 24.9901C58.4361 25.1889 57.7699 25.2884 57.0142 25.2884ZM58.2273 22.3651C58.8504 22.3651 59.4006 22.2424 59.8778 21.9972C60.3551 21.7453 60.7296 21.4072 61.0014 20.983C61.2732 20.5587 61.4091 20.0781 61.4091 19.5412V17.9205C61.2765 18.0066 61.0942 18.0862 60.8622 18.1591C60.6368 18.2254 60.3816 18.2884 60.0966 18.348C59.8116 18.401 59.5265 18.4508 59.2415 18.4972C58.9564 18.5369 58.6979 18.5734 58.4659 18.6065C57.9688 18.6795 57.5346 18.7955 57.1634 18.9545C56.7921 19.1136 56.5038 19.3291 56.2983 19.6009C56.0928 19.866 55.9901 20.1974 55.9901 20.5952C55.9901 21.1719 56.1989 21.6127 56.6165 21.9176C57.0407 22.2159 57.5777 22.3651 58.2273 22.3651ZM75.782 31.0455C74.4098 31.0455 73.2332 30.8565 72.2521 30.4787C71.2777 30.1075 70.5021 29.6004 69.9254 28.9574C69.3487 28.3144 68.9742 27.5919 68.8018 26.7898L72.7195 26.2628C72.8388 26.5677 73.0277 26.8527 73.2862 27.1179C73.5447 27.383 73.8861 27.5952 74.3104 27.7543C74.7412 27.92 75.2649 28.0028 75.8814 28.0028C76.8028 28.0028 77.5618 27.7775 78.1584 27.3267C78.7616 26.8826 79.0632 26.1368 79.0632 25.0895V22.2955H78.8842C78.6986 22.7197 78.4202 23.1207 78.049 23.4986C77.6778 23.8764 77.2005 24.1847 76.6172 24.4233C76.0339 24.6619 75.3378 24.7812 74.5291 24.7812C73.3823 24.7812 72.3383 24.5161 71.397 23.9858C70.4624 23.4489 69.7166 22.6302 69.1598 21.5298C68.6096 20.4228 68.3345 19.0241 68.3345 17.3338C68.3345 15.6037 68.6162 14.1586 69.1797 12.9986C69.7431 11.8385 70.4922 10.9702 71.4268 10.3935C72.3681 9.81679 73.3989 9.52839 74.5192 9.52839C75.3743 9.52839 76.0902 9.67419 76.6669 9.96589C77.2436 10.2509 77.7076 10.6089 78.0589 11.0398C78.4169 11.464 78.692 11.8816 78.8842 12.2926H79.0433V9.72729H83.2493V25.1491C83.2493 26.4484 82.9311 27.5355 82.2947 28.4105C81.6584 29.2855 80.7768 29.9418 79.6499 30.3793C78.5296 30.8234 77.2403 31.0455 75.782 31.0455ZM75.8714 21.5994C76.5542 21.5994 77.1309 21.4304 77.6016 21.0923C78.0788 20.7476 78.4434 20.2571 78.6953 19.6207C78.9538 18.9777 79.0831 18.2088 79.0831 17.3139C79.0831 16.419 78.9571 15.6435 78.7053 14.9872C78.4534 14.3243 78.0888 13.8106 77.6115 13.446C77.1342 13.0814 76.5542 12.8991 75.8714 12.8991C75.1754 12.8991 74.5888 13.0881 74.1115 13.4659C73.6342 13.8371 73.273 14.3542 73.0277 15.017C72.7824 15.6799 72.6598 16.4455 72.6598 17.3139C72.6598 18.1955 72.7824 18.9579 73.0277 19.6009C73.2796 20.2372 73.6409 20.7311 74.1115 21.0824C74.5888 21.4271 75.1754 21.5994 75.8714 21.5994ZM93.5803 25.2983C92.0092 25.2983 90.657 24.9801 89.5234 24.3438C88.3965 23.7008 87.5282 22.7926 86.9183 21.6193C86.3085 20.4394 86.0036 19.044 86.0036 17.4332C86.0036 15.8622 86.3085 14.4834 86.9183 13.2969C87.5282 12.1103 88.3866 11.1856 89.4936 10.5227C90.6072 9.85979 91.9131 9.52839 93.4112 9.52839C94.4188 9.52839 95.3568 9.69079 96.2251 10.0156C97.1001 10.3338 97.8625 10.8144 98.5121 11.4574C99.1683 12.1004 99.6787 12.9091 100.043 13.8835C100.408 14.8513 100.59 15.9848 100.59 17.2841V18.4474H87.6939V15.8224H96.603C96.603 15.2126 96.4704 14.6723 96.2053 14.2017C95.9401 13.7311 95.5722 13.3632 95.1016 13.098C94.6375 12.8262 94.0973 12.6903 93.4808 12.6903C92.8378 12.6903 92.2678 12.8395 91.7706 13.1378C91.2801 13.4295 90.8956 13.8239 90.6172 14.321C90.3388 14.8116 90.1963 15.3584 90.1896 15.9616V18.4574C90.1896 19.2131 90.3288 19.866 90.6072 20.4162C90.8923 20.9664 91.2933 21.3906 91.8104 21.6889C92.3274 21.9872 92.9406 22.1364 93.6499 22.1364C94.1205 22.1364 94.5514 22.0701 94.9425 21.9375C95.3336 21.8049 95.6683 21.6061 95.9467 21.3409C96.2251 21.0758 96.4373 20.7509 96.5831 20.3665L100.501 20.625C100.302 21.5663 99.8942 22.3883 99.2777 23.0909C98.6679 23.7869 97.879 24.3305 96.9112 24.7216C95.95 25.1061 94.8397 25.2983 93.5803 25.2983ZM116.062 14.0824L112.184 14.321C112.118 13.9896 111.975 13.6913 111.756 13.4261C111.538 13.1544 111.249 12.9389 110.891 12.7798C110.54 12.6141 110.119 12.5312 109.629 12.5312C108.972 12.5312 108.419 12.6705 107.968 12.9489C107.517 13.2206 107.292 13.5852 107.292 14.0426C107.292 14.4072 107.438 14.7154 107.729 14.9673C108.021 15.2192 108.522 15.4214 109.231 15.5739L111.995 16.1307C113.48 16.4356 114.587 16.9261 115.316 17.6023C116.045 18.2784 116.41 19.1667 116.41 20.267C116.41 21.268 116.115 22.1463 115.525 22.902C114.942 23.6577 114.139 24.2476 113.119 24.6719C112.104 25.0895 110.934 25.2983 109.609 25.2983C107.587 25.2983 105.976 24.8774 104.776 24.0355C103.583 23.187 102.884 22.0336 102.678 20.5753L106.844 20.3565C106.97 20.973 107.275 21.4437 107.759 21.7685C108.243 22.0866 108.863 22.2457 109.619 22.2457C110.361 22.2457 110.958 22.1032 111.408 21.8182C111.866 21.5265 112.098 21.152 112.104 20.6946C112.098 20.3101 111.935 19.9953 111.617 19.75C111.299 19.4981 110.808 19.3059 110.146 19.1733L107.501 18.6463C106.009 18.348 104.899 17.831 104.17 17.0952C103.447 16.3594 103.086 15.4214 103.086 14.2812C103.086 13.3002 103.351 12.455 103.881 11.7457C104.418 11.0365 105.171 10.4896 106.138 10.1051C107.113 9.72059 108.253 9.52839 109.559 9.52839C111.488 9.52839 113.006 9.93609 114.113 10.7514C115.227 11.5668 115.876 12.6771 116.062 14.0824Z" fill="#F5F8FC"/>
<path d="M3.56348 22.4H24.5V0H3.5057C1.57228 0.00642 0.00635613 1.58725 0 3.53908V24.1646H0.00057783C0.00057783 24.1733 0 24.1821 0 24.1908C0 26.2558 1.60521 28 3.5057 28H24.5V26.1333H3.5057C2.63895 26.1333 1.84906 25.2076 1.84906 24.1908C1.84906 23.2202 2.63433 22.4 3.56348 22.4ZM5.54717 1.88592H11.0943V11.9671L8.29764 9.4885L5.54717 11.9525V1.88592ZM1.84906 3.55367C1.84617 2.62617 2.58695 1.87192 3.5057 1.86667H3.69811H5.54717H3.69811V14.4667H5.52637L8.30458 11.9782L11.1117 14.4667H12.9434V1.86667H22.6509V20.5333H5.55179H3.70274H3.56348C2.96196 20.5333 2.37141 20.692 1.84963 20.993V3.55367H1.84906Z" fill="#FFCA42"/>
</svg>
